<svg width="25" height="24" viewBox="0 0 25 24" fill="none" xmlns="http://www.w3.org/2000/svg">
<g clip-path="url(#clip0_1822_256)">
<path d="M4.42708 0H20.5729C23.0208 0 25 1.94872 25 4.35897V19.641C25 22.0513 23.0208 24 20.5729 24H4.42708C1.97917 24 0 22.0513 0 19.641V4.35897C0 1.94872 1.97917 0 4.42708 0Z" fill="#00005B"/>
<path d="M10.0417 14.359H6.16669L5.37502 16.7795C5.35419 16.8718 5.27085 16.9334 5.1771 16.9231H3.21877C3.10419 16.9231 3.07294 16.8616 3.10419 16.7385L6.45835 7.27181C6.4896 7.16925 6.52085 7.07694 6.56252 6.95386C6.60419 6.73848 6.62502 6.51284 6.62502 6.2872C6.6146 6.23592 6.65627 6.18463 6.70835 6.17438H6.7396H9.40627C9.47919 6.17438 9.53127 6.20515 9.54168 6.25643L13.3438 16.718C13.375 16.8308 13.3438 16.8821 13.2396 16.8821H11.0625C10.9896 16.8923 10.9167 16.841 10.8959 16.7692L10.0417 14.3077V14.359ZM6.77085 12.318H9.41669C9.35419 12.1026 9.27085 11.8462 9.1771 11.5795C9.08335 11.3026 8.9896 11.0051 8.89585 10.6975C8.79169 10.3795 8.69794 10.0718 8.59377 9.75386C8.4896 9.43592 8.39585 9.13848 8.31252 8.84104C8.22919 8.55386 8.15627 8.2872 8.08335 8.04104H8.06252C7.96877 8.48207 7.85419 8.9231 7.70835 9.36412C7.5521 9.85643 7.39585 10.3692 7.22919 10.8821C7.09377 11.4051 6.9271 11.8872 6.77085 12.318Z" fill="#F5F5FF"/>
<path d="M19.4795 13.4359H16.1774C16.2191 13.7538 16.3232 14.0718 16.5003 14.3487C16.6878 14.6256 16.9482 14.841 17.2607 14.9641C17.6774 15.1385 18.1357 15.2308 18.5941 15.2205C18.9587 15.2102 19.3232 15.1795 19.6774 15.1077C20.0003 15.0667 20.3128 14.9846 20.6045 14.8718C20.6566 14.8308 20.6878 14.8513 20.6878 14.9538V16.5231C20.6878 16.5641 20.6774 16.6051 20.667 16.6461C20.6462 16.6769 20.6253 16.6974 20.5941 16.7179C20.2607 16.8615 19.917 16.9641 19.5524 17.0256C19.0628 17.1179 18.5732 17.159 18.0732 17.1487C17.2816 17.1487 16.6149 17.0256 16.0732 16.7897C15.5628 16.5743 15.1149 16.2359 14.7607 15.8154C14.4274 15.4154 14.1878 14.9641 14.042 14.4718C13.8962 13.9897 13.8232 13.4872 13.8232 12.9743C13.8232 12.4205 13.9066 11.8769 14.0837 11.3436C14.2503 10.8308 14.5107 10.359 14.8649 9.93845C15.2087 9.5282 15.6357 9.19999 16.1253 8.96409C16.6149 8.7282 17.1982 8.64615 17.8649 8.64615C18.417 8.63589 18.9691 8.73845 19.4795 8.96409C19.9066 9.14871 20.2816 9.42563 20.5732 9.78461C20.8441 10.1333 21.0628 10.5231 21.1982 10.9538C21.3337 11.3641 21.3962 11.7846 21.3962 12.2051C21.3962 12.4513 21.3857 12.6667 21.3753 12.8615C21.3545 13.0564 21.3441 13.2 21.3337 13.2923C21.3232 13.3641 21.2607 13.4256 21.1878 13.4256C21.1253 13.4256 21.0107 13.4359 20.8441 13.4461C20.6774 13.4667 20.4795 13.4769 20.2399 13.4769C20.0003 13.4769 19.7503 13.4359 19.4795 13.4359ZM16.1774 11.9385H18.3753C18.6462 11.9385 18.8441 11.9385 18.9691 11.9282C19.0524 11.9179 19.1357 11.8974 19.2087 11.8461V11.7436C19.2087 11.6102 19.1878 11.4872 19.1462 11.3641C18.9587 10.7897 18.4066 10.4 17.792 10.4205C17.2191 10.3897 16.6774 10.6872 16.4066 11.2C16.2816 11.4359 16.2087 11.682 16.1774 11.9385Z" fill="#F5F5FF"/>
</g>
<defs>
<clipPath id="clip0_1822_256">
<rect width="25" height="24" fill="white"/>
</clipPath>
</defs>
</svg>
