<svg width="1192" height="682" viewBox="0 0 1192 682" fill="none" xmlns="http://www.w3.org/2000/svg">
<path d="M466.884 509.846H224.096L174.494 655.304C173.189 660.851 167.967 664.549 162.094 663.933H39.3942C32.215 663.933 30.2571 660.235 32.215 652.839L242.37 83.9493C244.328 77.7858 246.286 72.2387 248.897 64.8425C251.507 51.8992 252.813 38.3395 252.813 24.7798C252.16 21.6981 254.771 18.6163 258.034 18H259.992H427.072C431.64 18 434.904 19.849 435.556 22.9308L673.776 651.606C675.734 658.386 673.776 661.468 667.249 661.468H530.844C526.275 662.084 521.707 659.002 520.401 654.688L466.884 506.764V509.846ZM261.95 387.193H427.724C423.808 374.249 418.587 358.841 412.713 342.816C406.839 326.174 400.966 308.3 395.092 289.81C388.565 270.703 382.691 252.212 376.165 233.106C369.638 213.999 363.764 196.125 358.543 178.251C353.322 160.993 348.753 144.968 344.184 130.175H342.879C337.005 156.678 329.826 183.181 320.689 209.684C310.899 239.269 301.109 270.086 290.667 300.904C282.182 332.338 271.74 361.306 261.95 387.193Z" fill="#EBEBFF"/>
<path d="M1040.03 440.391H832.473C835.092 459.532 841.639 478.673 852.77 495.344C864.555 512.015 880.924 524.981 900.566 532.391C926.756 542.887 955.565 548.444 984.374 547.827C1007.29 547.209 1030.21 545.357 1052.47 541.035C1072.76 538.565 1092.41 533.626 1110.74 526.834C1114.01 524.364 1115.98 525.599 1115.98 531.773V626.243C1115.98 628.713 1115.32 631.183 1114.67 633.652C1113.36 635.505 1112.05 636.74 1110.08 637.974C1089.13 646.619 1067.53 652.793 1044.61 656.498C1013.84 662.055 983.064 664.525 951.636 663.907C901.876 663.907 859.972 656.498 825.925 642.297C793.843 629.33 765.688 608.954 743.427 583.639C722.475 559.558 707.416 532.391 698.25 502.753C689.083 473.733 684.5 443.478 684.5 412.606C684.5 379.263 689.738 346.538 700.869 314.431C711.345 283.559 727.713 255.156 749.975 229.841C771.581 205.143 798.426 185.384 829.199 171.183C859.972 156.982 896.638 152.042 938.541 152.042C973.243 151.425 1007.94 157.599 1040.03 171.183C1066.87 182.297 1090.44 198.968 1108.78 220.579C1125.8 241.572 1139.55 265.035 1148.06 290.968C1156.57 315.666 1160.5 340.981 1160.5 366.297C1160.5 381.116 1159.85 394.082 1159.19 405.814C1157.88 417.545 1157.23 426.189 1156.57 431.747C1155.92 436.069 1151.99 439.773 1147.41 439.773C1143.48 439.773 1136.27 440.391 1125.8 441.008C1115.32 442.243 1102.88 442.861 1087.82 442.861C1072.76 442.861 1057.05 440.391 1040.03 440.391ZM832.473 350.243H970.624C987.647 350.243 1000.09 350.243 1007.94 349.626C1013.18 349.008 1018.42 347.773 1023 344.686V338.512C1023 330.485 1021.69 323.075 1019.08 315.666C1007.29 281.089 972.588 257.626 933.958 258.861C897.947 257.008 863.9 274.914 846.877 305.787C839.02 319.988 834.437 334.807 832.473 350.243Z" fill="#EBEBFF"/>
</svg>
