<svg width="744" height="840" viewBox="0 0 744 840" fill="none" xmlns="http://www.w3.org/2000/svg">
<path fill-rule="evenodd" clip-rule="evenodd" d="M337.636 9.2316C358.901 -3.0772 385.099 -3.0772 406.364 9.2316L709.636 184.779C730.9 197.087 744 219.835 744 244.451V595.546C744 620.163 730.9 642.912 709.636 655.221L406.364 830.768C385.099 843.077 358.901 843.077 337.636 830.768L34.3638 655.221C13.0999 642.912 0 620.163 0 595.546V244.451C0.000392145 219.835 13.1004 197.087 34.3638 184.779L337.636 9.2316ZM406.364 37.9422C385.099 25.6335 358.901 25.6335 337.636 37.9422L59.1662 199.134C37.9021 211.443 24.8028 234.19 24.8024 258.807V581.19C24.8024 605.808 37.9018 628.557 59.1662 640.866L337.636 802.058C358.901 814.367 385.099 814.367 406.364 802.058L684.834 640.866C706.098 628.557 719.198 605.808 719.198 581.19V258.807C719.197 234.19 706.098 211.443 684.834 199.134L406.364 37.9422Z" fill="#EBEBFF"/>
<path d="M337.636 66.6527C358.901 54.3439 385.099 54.3439 406.364 66.6527L660.035 213.489C681.299 225.798 694.399 248.546 694.399 273.163V566.836C694.399 591.454 681.299 614.202 660.035 626.51L406.364 773.347C385.099 785.656 358.901 785.656 337.636 773.347L83.965 626.51C62.7006 614.202 49.6012 591.454 49.6012 566.836V273.163C49.6012 248.546 62.7006 225.798 83.965 213.489L337.636 66.6527Z" fill="#EBEBFF"/>
</svg>
