<svg width="260" height="520" viewBox="0 0 260 520" fill="none" xmlns="http://www.w3.org/2000/svg">
<path d="M0 5C140.833 5 255 119.167 255 260C255 400.833 140.833 515 0 515V520C143.594 520 260 403.594 260 260C260 116.406 143.594 0 0 0V5Z" fill="#F5F5FF"/>
<path d="M0 15C135.31 15 245 124.69 245 260C245 395.31 135.31 505 0 505V510C138.071 510 250 398.071 250 260C250 121.929 138.071 10 0 10V15Z" fill="#F5F5FF"/>
<path d="M0 25C129.787 25 235 130.213 235 260C235 389.787 129.787 495 0 495V500C132.548 500 240 392.548 240 260C240 127.452 132.548 20 0 20V25Z" fill="#F5F5FF"/>
<path d="M0 35C124.264 35 225 135.736 225 260C225 384.264 124.264 485 0 485V490C127.025 490 230 387.025 230 260C230 132.975 127.025 30 0 30V35Z" fill="#F5F5FF"/>
<path d="M0 45C118.741 45 215 141.259 215 260C215 378.741 118.741 475 0 475V480C121.503 480 220 381.503 220 260C220 138.497 121.503 40 0 40V45Z" fill="#F5F5FF"/>
<path d="M0 55C113.218 55 205 146.782 205 260C205 373.218 113.218 465 0 465V470C115.98 470 210 375.98 210 260C210 144.02 115.98 50 0 50V55Z" fill="#F5F5FF"/>
<path d="M0 65C107.696 65 195 152.304 195 260C195 367.696 107.696 455 0 455V460C110.457 460 200 370.457 200 260C200 149.543 110.457 60 0 60V65Z" fill="#F5F5FF"/>
<path d="M0 75C102.173 75 185 157.827 185 260C185 362.173 102.173 445 0 445V450C104.934 450 190 364.934 190 260C190 155.066 104.934 70 0 70V75Z" fill="#F5F5FF"/>
<path d="M0 85C96.6498 85 175 163.35 175 260C175 356.65 96.6498 435 0 435V440C99.4113 440 180 359.411 180 260C180 160.589 99.4113 80 0 80V85Z" fill="#F5F5FF"/>
<path d="M0 95C91.127 95 165 168.873 165 260C165 351.127 91.127 425 0 425V430C93.8884 430 170 353.888 170 260C170 166.112 93.8884 90 0 90V95Z" fill="#F5F5FF"/>
<path d="M0 105C85.6041 105 155 174.396 155 260C155 345.604 85.6041 415 0 415V420C88.3656 420 160 348.366 160 260C160 171.634 88.3656 100 0 100V105Z" fill="#F5F5FF"/>
<path d="M0 115C80.0813 115 145 179.919 145 260C145 340.081 80.0813 405 0 405V410C82.8427 410 150 342.843 150 260C150 177.157 82.8427 110 0 110V115Z" fill="#F5F5FF"/>
<path d="M0 125C74.5584 125 135 185.442 135 260C135 334.558 74.5584 395 0 395V400C77.3199 400 140 337.32 140 260C140 182.68 77.3199 120 0 120V125Z" fill="#F5F5FF"/>
<path d="M0 135C69.0356 135 125 190.964 125 260C125 329.036 69.0356 385 0 385V390C71.797 390 130 331.797 130 260C130 188.203 71.797 130 0 130V135Z" fill="#F5F5FF"/>
<path d="M0 145C63.5127 145 115 196.487 115 260C115 323.513 63.5127 375 0 375V380C66.2742 380 120 326.274 120 260C120 193.726 66.2742 140 0 140V145Z" fill="#F5F5FF"/>
<path d="M0 155C57.9899 155 105 202.01 105 260C105 317.99 57.9899 365 0 365V370C60.7513 370 110 320.751 110 260C110 199.249 60.7513 150 0 150V155Z" fill="#F5F5FF"/>
<path d="M0 165C52.4671 165 95 207.533 95 260C95 312.467 52.4671 355 0 355V360C55.2285 360 100 315.228 100 260C100 204.772 55.2285 160 0 160V165Z" fill="#F5F5FF"/>
<path d="M0 175C46.9442 175 85 213.056 85 260C85 306.944 46.9442 345 0 345V350C49.7056 350 90 309.706 90 260C90 210.294 49.7056 170 0 170V175Z" fill="#F5F5FF"/>
<path d="M0 185C41.4214 185 75 218.579 75 260C75 301.421 41.4214 335 0 335V340C44.1828 340 80 304.183 80 260C80 215.817 44.1828 180 0 180V185Z" fill="#F5F5FF"/>
<path d="M0 195C35.8985 195 65 224.101 65 260C65 295.898 35.8985 325 0 325V330C38.6599 330 70 298.66 70 260C70 221.34 38.6599 190 0 190V195Z" fill="#F5F5FF"/>
<path d="M0 205C30.3757 205 55 229.624 55 260C55 290.376 30.3757 315 0 315V320C33.1371 320 60 293.137 60 260C60 226.863 33.1371 200 0 200V205Z" fill="#F5F5FF"/>
<path d="M0 215C24.8528 215 45 235.147 45 260C45 284.853 24.8528 305 0 305V310C27.6142 310 50 287.614 50 260C50 232.386 27.6142 210 0 210V215Z" fill="#F5F5FF"/>
<path d="M0 225C19.33 225 35 240.67 35 260C35 279.33 19.33 295 0 295V300C22.0914 300 40 282.091 40 260C40 237.909 22.0914 220 0 220V225Z" fill="#F5F5FF"/>
<path d="M0 235C13.8071 235 25 246.193 25 260C25 273.807 13.8071 285 0 285V290C16.5685 290 30 276.569 30 260C30 243.431 16.5685 230 0 230V235Z" fill="#F5F5FF"/>
<path d="M0 280C11.0457 280 20 271.046 20 260C20 248.954 11.0457 240 0 240V280Z" fill="#F5F5FF"/>
</svg>
