<svg width="1192" height="378" viewBox="0 0 1192 378" fill="none" xmlns="http://www.w3.org/2000/svg">
<path fill-rule="evenodd" clip-rule="evenodd" d="M1192 0.750646C1192 100.803 1152.25 196.758 1081.51 267.506C1010.76 338.254 914.803 378 814.75 378C794.602 378 774.619 376.388 754.975 373.236C696.173 363.799 640.404 340.56 592.293 305.432C573.372 249.014 532.845 202.508 480.542 175.742C453.141 123.406 438.167 64.8961 437.523 4.80087C496.257 14.2599 551.96 37.4825 600.029 72.5614C618.932 129.107 659.545 175.71 711.973 202.475C742.815 218.22 777.746 227.1 814.75 227.1C939.76 227.1 1041.1 125.76 1041.1 0.750646H1192Z" fill="url(#paint0_linear_2700_4303)"/>
<path d="M480.542 175.742C453.141 123.406 438.167 64.8961 437.523 4.80087C417.799 1.62437 397.733 0 377.5 0C277.381 0 181.363 39.7727 110.568 110.568C39.7727 181.362 1.51176e-05 277.381 0 377.5H151C151 252.407 252.407 151 377.5 151C414.608 151 449.631 159.924 480.542 175.742Z" fill="url(#paint1_linear_2700_4303)"/>
<defs>
<linearGradient id="paint0_linear_2700_4303" x1="1192" y1="189.504" x2="803.686" y2="748.147" gradientUnits="userSpaceOnUse">
<stop stop-color="#EBEBFF"/>
<stop offset="1" stop-color="#F5F5FF"/>
</linearGradient>
<linearGradient id="paint1_linear_2700_4303" x1="754.999" y1="192.253" x2="342.999" y2="-183.667" gradientUnits="userSpaceOnUse">
<stop stop-color="#F5F5FF"/>
<stop offset="1" stop-color="#EBEBFF"/>
</linearGradient>
</defs>
</svg>
