<svg width="1184" height="376" viewBox="0 0 1184 376" fill="none" xmlns="http://www.w3.org/2000/svg">
<path d="M1184 0.659058C1184 100.206 1144.45 195.675 1074.06 266.065C1003.67 336.455 908.205 376 808.659 376C709.112 376 613.643 336.455 543.253 266.065C472.863 195.675 433.317 100.206 433.317 0.659058H583.454C583.454 125.036 684.281 225.864 808.659 225.864C933.036 225.864 1033.86 125.036 1033.86 0.659058H1184Z" fill="url(#paint0_linear_671_5614)"/>
<path d="M750.682 375.342C750.682 275.795 711.137 180.326 640.747 109.936C570.357 39.5459 474.888 0.000640869 375.341 0.000610352C275.795 0.000610352 180.326 39.5459 109.935 109.936C39.5453 180.326 1.50311e-05 275.795 0 375.342H150.136C150.136 250.965 250.964 150.137 375.341 150.137C499.718 150.137 600.546 250.965 600.546 375.342H750.682Z" fill="url(#paint1_linear_671_5614)"/>
<defs>
<linearGradient id="paint0_linear_671_5614" x1="1184" y1="188.83" x2="774.355" y2="562.6" gradientUnits="userSpaceOnUse">
<stop stop-color="#EBEBFF"/>
<stop offset="1" stop-color="#F5F5FF"/>
</linearGradient>
<linearGradient id="paint1_linear_671_5614" x1="750.682" y1="188.172" x2="341.038" y2="-185.599" gradientUnits="userSpaceOnUse">
<stop stop-color="#F5F5FF"/>
<stop offset="1" stop-color="#EBEBFF"/>
</linearGradient>
</defs>
</svg>
