<svg width="1129" height="646" viewBox="0 0 1129 646" fill="none" xmlns="http://www.w3.org/2000/svg">
<path d="M435.384 491.846H192.596L142.994 637.304C141.689 642.851 136.467 646.549 130.594 645.933H7.89424C0.715022 645.933 -1.24295 642.235 0.71502 634.839L210.87 65.9493C212.828 59.7858 214.786 54.2387 217.397 46.8425C220.007 33.8992 221.313 20.3395 221.313 6.77982C220.66 3.69808 223.271 0.616348 226.534 0H228.492H395.572C400.14 0 403.404 1.84904 404.056 4.93078L642.276 633.606C644.234 640.386 642.276 643.468 635.749 643.468H499.344C494.775 644.084 490.207 641.002 488.902 636.688L435.384 488.764V491.846ZM230.45 369.193H396.224C392.308 356.249 387.087 340.841 381.213 324.816C375.339 308.174 369.466 290.3 363.592 271.81C357.065 252.703 351.191 234.212 344.665 215.106C338.138 195.999 332.264 178.125 327.043 160.251C321.822 142.993 317.253 126.968 312.684 112.175H311.379C305.505 138.678 298.326 165.181 289.189 191.684C279.399 221.269 269.609 252.086 259.167 282.904C250.682 314.338 240.24 343.306 230.45 369.193Z" fill="white" fill-opacity="0.6"/>
<path d="M1008.53 422.391H800.973C803.592 441.532 810.139 460.673 821.27 477.344C833.055 494.015 849.424 506.981 869.066 514.391C895.256 524.887 924.065 530.444 952.873 529.827C975.79 529.209 998.706 527.357 1020.97 523.035C1041.26 520.565 1060.91 515.626 1079.24 508.834C1082.51 506.364 1084.48 507.599 1084.48 513.773V608.243C1084.48 610.713 1083.82 613.183 1083.17 615.652C1081.86 617.505 1080.55 618.74 1078.58 619.974C1057.63 628.619 1036.03 634.793 1013.11 638.498C982.337 644.055 951.564 646.525 920.136 645.907C870.376 645.907 828.472 638.498 794.425 624.297C762.343 611.33 734.188 590.954 711.927 565.639C690.975 541.558 675.916 514.391 666.75 484.753C657.583 455.733 653 425.478 653 394.606C653 361.263 658.238 328.538 669.369 296.431C679.845 265.559 696.213 237.156 718.475 211.841C740.081 187.143 766.926 167.384 797.699 153.183C828.472 138.982 865.138 134.042 907.041 134.042C941.743 133.425 976.444 139.599 1008.53 153.183C1035.37 164.297 1058.94 180.968 1077.28 202.579C1094.3 223.572 1108.05 247.035 1116.56 272.968C1125.07 297.666 1129 322.981 1129 348.297C1129 363.116 1128.35 376.082 1127.69 387.814C1126.38 399.545 1125.73 408.189 1125.07 413.747C1124.42 418.069 1120.49 421.773 1115.91 421.773C1111.98 421.773 1104.77 422.391 1094.3 423.008C1083.82 424.243 1071.38 424.861 1056.32 424.861C1041.26 424.861 1025.55 422.391 1008.53 422.391ZM800.973 332.243H939.124C956.147 332.243 968.587 332.243 976.444 331.626C981.682 331.008 986.92 329.773 991.503 326.686V320.512C991.503 312.485 990.194 305.075 987.575 297.666C975.79 263.089 941.088 239.626 902.458 240.861C866.447 239.008 832.4 256.914 815.377 287.787C807.52 301.988 802.937 316.807 800.973 332.243Z" fill="white" fill-opacity="0.6"/>
</svg>
