<svg width="1192" height="680" viewBox="0 0 1192 680" fill="none" xmlns="http://www.w3.org/2000/svg">
<path d="M466.884 508.846H224.096L174.494 654.304C173.189 659.851 167.967 663.549 162.094 662.933H39.3942C32.215 662.933 30.2571 659.235 32.215 651.839L242.37 82.9493C244.328 76.7858 246.286 71.2387 248.897 63.8425C251.507 50.8992 252.813 37.3395 252.813 23.7798C252.16 20.6981 254.771 17.6163 258.034 17H259.992H427.072C431.64 17 434.904 18.849 435.556 21.9308L673.776 650.606C675.734 657.386 673.776 660.468 667.249 660.468H530.844C526.275 661.084 521.707 658.002 520.401 653.688L466.884 505.764V508.846ZM261.95 386.193H427.724C423.808 373.249 418.587 357.841 412.713 341.816C406.839 325.174 400.966 307.3 395.092 288.81C388.565 269.703 382.691 251.212 376.165 232.106C369.638 212.999 363.764 195.125 358.543 177.251C353.322 159.993 348.753 143.968 344.184 129.175H342.879C337.005 155.678 329.826 182.181 320.689 208.684C310.899 238.269 301.109 269.086 290.667 299.904C282.182 331.338 271.74 360.306 261.95 386.193Z" fill="#F5F5FF"/>
<path d="M1040.03 439.391H832.473C835.092 458.532 841.639 477.673 852.77 494.344C864.555 511.015 880.924 523.981 900.566 531.391C926.756 541.887 955.565 547.444 984.374 546.827C1007.29 546.209 1030.21 544.357 1052.47 540.035C1072.76 537.565 1092.41 532.626 1110.74 525.834C1114.01 523.364 1115.98 524.599 1115.98 530.773V625.243C1115.98 627.713 1115.32 630.183 1114.67 632.652C1113.36 634.505 1112.05 635.74 1110.08 636.974C1089.13 645.619 1067.53 651.793 1044.61 655.498C1013.84 661.055 983.064 663.525 951.636 662.907C901.876 662.907 859.972 655.498 825.925 641.297C793.843 628.33 765.688 607.954 743.427 582.639C722.475 558.558 707.416 531.391 698.25 501.753C689.083 472.733 684.5 442.478 684.5 411.606C684.5 378.263 689.738 345.538 700.869 313.431C711.345 282.559 727.713 254.156 749.975 228.841C771.581 204.143 798.426 184.384 829.199 170.183C859.972 155.982 896.638 151.042 938.541 151.042C973.243 150.425 1007.94 156.599 1040.03 170.183C1066.87 181.297 1090.44 197.968 1108.78 219.579C1125.8 240.572 1139.55 264.035 1148.06 289.968C1156.57 314.666 1160.5 339.981 1160.5 365.297C1160.5 380.116 1159.85 393.082 1159.19 404.814C1157.88 416.545 1157.23 425.189 1156.57 430.747C1155.92 435.069 1151.99 438.773 1147.41 438.773C1143.48 438.773 1136.27 439.391 1125.8 440.008C1115.32 441.243 1102.88 441.861 1087.82 441.861C1072.76 441.861 1057.05 439.391 1040.03 439.391ZM832.473 349.243H970.624C987.647 349.243 1000.09 349.243 1007.94 348.626C1013.18 348.008 1018.42 346.773 1023 343.686V337.512C1023 329.485 1021.69 322.075 1019.08 314.666C1007.29 280.089 972.588 256.626 933.958 257.861C897.947 256.008 863.9 273.914 846.877 304.787C839.02 318.988 834.437 333.807 832.473 349.243Z" fill="#F5F5FF"/>
</svg>
