<svg width="333" height="355" viewBox="0 0 333 355" fill="none" xmlns="http://www.w3.org/2000/svg">
<g clip-path="url(#clip0_2514_2552)">
<path d="M331.3 247.9C335 259 329.4 271.1 318.9 274.9L104.8 353.2C94.2999 357 82.7999 351.2 79.0999 340.1L2.09987 107.5C-1.60013 96.3999 3.99987 84.2999 14.4999 80.4999L228.7 2.1999C239.2 -1.7001 250.7 4.1999 254.4 15.2999L331.3 247.9ZM251.9 158.7C253.8 155.9 255.7 152 254.2 148.5C252.7 145.1 249.1 143.3 245.9 141.9C239.1 139.2 231.4 138.8 223.8 139.3C204.3 140.9 186.3 146.3 171.8 153.7C172.4 155.3 188.5 147.5 216 144.2C222.8 143.5 230.3 143.2 237.7 144.6C241.3 145.5 245.1 146.5 247.8 148.7C250.8 151.2 250.1 150.2 248.9 153.8C245 160.2 236.6 166.6 228.5 172.2C220.1 177.8 210.9 183.1 201.4 188C182.2 197.3 163 205.2 145.5 209.9C127.8 214 111.1 217.9 98.4999 215.3C92.1999 214.1 86.3999 211.5 85.6999 207.8C84.1999 204.7 88.1999 200.3 90.3999 197C95.3999 190.3 97.7999 186.2 97.1999 185.6C96.5999 185 93.1999 188 87.1999 193.6C85.6999 195.1 83.9999 196.7 82.2999 198.9C80.5999 200.8 78.4999 205.2 79.4999 209.5C81.3999 218.7 89.8999 221.8 96.6999 223.9C127 229.8 166.2 218.8 206.2 199.3C224.8 189.1 242.4 179.7 255.9 163C240.3 180.8 224.5 187.4 213.6 193.6C202.6 199.2 195.7 201.4 195.5 200.8C195.2 200 206.8 194.3 224.2 182.8C232.7 176.8 243.5 170.2 252.1 158.8L251.9 158.7ZM215.8 241.7C215.8 241.7 206.8 244.5 193.7 248.5C179.6 252.3 162.5 257.6 142.3 254.1C121.9 251 104.6 243.1 94.2999 234.2C83.7999 225.5 79.6999 216.9 77.9999 217.8C76.7999 218.2 78.2999 228.8 88.8999 240.8C99.2999 252.8 118.6 263.1 140.6 266.4C151.1 268 161.5 267.9 170.7 266C149.6 268.8 135.6 263.1 135.9 262.2C135.9 260.2 162 266.4 191 253.9C200.1 250.2 208.3 246.8 215.7 241.7H215.8ZM149.3 194.9C156.6 192.9 161.9 183.2 161.5 172.1C161.3 167.5 157.6 153.6 157.6 150.3C157.5 141 159.3 132.5 162.6 125.6C155.3 127.2 149.7 136.5 149.9 147.7C149.9 152.2 153.6 166.4 153.8 170C154.1 179.2 152.5 187.9 149.4 195L149.3 194.9ZM151.2 119.6C153.7 105.7 146.8 92.2999 135.5 87.7999C139.2 97.4999 140.4 108.8 138.3 120.3C137.5 124.7 129.2 141.6 128.4 147.2C126.3 161.1 133.6 174.3 145.1 178.2C141.1 168.7 139.5 157.5 141.3 145.9C141.9 141.7 150.2 125.3 151.2 119.6Z" fill="#E42128"/>
</g>
<defs>
<clipPath id="clip0_2514_2552">
<rect width="333" height="355" fill="white"/>
</clipPath>
</defs>
</svg>
