<svg width="250" height="41" viewBox="0 0 250 41" fill="none" xmlns="http://www.w3.org/2000/svg">
<path d="M55.413 19.1337H63.6236L65.1041 22.1502H67.7961L60.9457 8.61157H58.1404L51.29 22.1502H53.9112L55.4059 19.1337H55.413ZM59.4722 10.9171H59.5502L62.6176 17.0795H56.4261L59.4722 10.9171Z" fill="#F5F5FF"/>
<path d="M72.1025 16.4187H81.9211V14.4077H72.1025V10.7088H82.2399V8.60437H69.708V22.143H72.1025V16.4187Z" fill="#F5F5FF"/>
<path d="M90.1319 22.143H92.5264V10.7303H98.6258V8.60437H84.0537V10.7303H90.1319V22.143Z" fill="#F5F5FF"/>
<path d="M113.722 20.0817H103.337V16.074H113.163V14.0629H103.337V10.6729H113.46V8.60437H100.942V22.143H113.722V20.0817Z" fill="#F5F5FF"/>
<path d="M118.9 16.627H125.035L128.329 22.143H131.135L127.67 16.4546V16.3756C129.803 16.0093 130.873 14.7596 130.873 12.6193C130.873 11.2187 130.504 10.1917 129.76 9.55962C129.016 8.92039 127.841 8.60437 126.232 8.60437H116.506V22.143H118.9V16.627ZM118.9 10.7303H126.027C126.778 10.7303 127.323 10.8812 127.67 11.1828C128.018 11.4845 128.195 11.9657 128.195 12.6265C128.195 13.2872 128.018 13.7828 127.67 14.0845C127.323 14.3861 126.771 14.537 126.027 14.537H118.9V10.7232V10.7303Z" fill="#F5F5FF"/>
<path d="M138.913 15.7509H132.948V17.6829H138.913V15.7509Z" fill="#F5F5FF"/>
<path d="M154.335 20.0817H143.95V16.074H153.769V14.0629H143.95V10.6729H154.073V8.60437H141.556V22.143H154.335V20.0817Z" fill="#F5F5FF"/>
<path d="M159.515 16.4187H169.333V14.4077H159.515V10.7088H169.652V8.60437H157.12V22.143H159.515V16.4187Z" fill="#F5F5FF"/>
<path d="M174.703 16.4187H184.529V14.4077H174.703V10.7088H184.84V8.60437H172.309V22.143H174.703V16.4187Z" fill="#F5F5FF"/>
<path d="M200.276 20.0817H189.891V16.074H199.716V14.0629H189.891V10.6729H200.014V8.60437H187.496V22.143H200.276V20.0817Z" fill="#F5F5FF"/>
<path d="M215.111 16.9288C215.061 18.0062 214.636 18.8537 213.828 19.4714C213.021 20.0891 211.866 20.3979 210.357 20.3979C208.77 20.3979 207.502 19.9742 206.553 19.1266C205.597 18.2791 205.122 17.0294 205.122 15.3703C205.122 13.7112 205.597 12.4614 206.553 11.6139C207.509 10.7664 208.777 10.3427 210.357 10.3427C211.838 10.3427 212.985 10.6371 213.779 11.2261C214.579 11.815 215.011 12.5835 215.089 13.5316H217.873C217.81 12.483 217.477 11.5637 216.86 10.7736C216.251 9.98354 215.394 9.36586 214.289 8.92774C213.184 8.48244 211.873 8.26697 210.35 8.26697C208.827 8.26697 207.453 8.53271 206.262 9.06421C205.072 9.5957 204.137 10.3929 203.464 11.4631C202.791 12.5333 202.451 13.8404 202.451 15.3775C202.451 16.9145 202.791 18.2288 203.464 19.2918C204.137 20.362 205.072 21.1592 206.262 21.6907C207.453 22.2222 208.813 22.488 210.35 22.488C211.887 22.488 213.212 22.2653 214.331 21.8128C215.451 21.3675 216.322 20.7211 216.938 19.888C217.555 19.0548 217.873 18.0637 217.902 16.9288H215.096H215.111Z" fill="#F5F5FF"/>
<path d="M219.659 10.7303H225.737V22.143H228.132V10.7303H234.231V8.60437H219.659V10.7303Z" fill="#F5F5FF"/>
<path d="M248.923 15.32C248.208 14.7382 247.188 14.3863 245.863 14.257L240.904 13.8045C240.146 13.7255 239.587 13.5747 239.232 13.3521C238.878 13.1222 238.701 12.7416 238.701 12.2172C238.701 10.9029 239.99 10.2421 242.576 10.2421C243.95 10.2421 245.006 10.4217 245.757 10.7808C246.508 11.1399 246.897 11.7863 246.933 12.7272H249.554C249.49 9.75371 247.174 8.26697 242.597 8.26697C240.529 8.26697 238.914 8.59735 237.759 9.25095C236.604 9.91172 236.03 10.9388 236.03 12.3393C236.03 13.5172 236.377 14.3719 237.079 14.9178C237.78 15.4637 238.793 15.8012 240.125 15.9449L245.119 16.4404C245.828 16.5195 246.366 16.6846 246.734 16.9432C247.103 17.2018 247.287 17.6543 247.287 18.3007C247.287 19.0333 246.904 19.5863 246.139 19.9598C245.374 20.3333 244.269 20.52 242.817 20.52C241.365 20.52 240.217 20.3117 239.431 19.888C238.644 19.4642 238.226 18.6957 238.177 17.5824H235.556C235.591 19.378 236.236 20.6421 237.483 21.3819C238.729 22.1217 240.493 22.488 242.774 22.488C245.056 22.488 246.89 22.1504 248.137 21.4753C249.377 20.8001 250 19.6869 250 18.1498C250 16.8498 249.639 15.909 248.923 15.3272V15.32Z" fill="#F5F5FF"/>
<path d="M0 30.9844C0.864267 34.08 3.20912 36.6871 6.00028 38.4037C11.6534 41.8225 18.7872 41.4993 24.8158 39.5385C27.8195 38.5474 30.6744 37.1971 33.2814 35.4302C27.3378 36.7374 21.4721 38.2672 15.4505 38.1308C9.52819 38.0015 3.78294 35.9186 0.00708416 30.9916L0 30.9844Z" fill="#F5F5FF"/>
<path d="M24.7594 13.9051C27.841 13.5244 37.8084 12.167 39.0694 15.5858C38.8214 19.6797 29.4916 24.2261 25.9849 25.7703C20.771 28.0615 15.2099 29.8283 9.578 30.5034C0.843239 31.3941 -0.226469 28.1907 6.02176 22.3587C4.13029 23.5438 2.17506 24.9371 1.13369 27.0416C-0.949054 32.1123 6.3618 32.9598 9.71969 32.7371C18.7874 32.2057 27.4868 29.0454 35.0172 24.0034C37.695 22.0642 43.3765 17.5034 40.3941 13.7112C36.937 10.2493 28.7902 12.5189 24.7594 13.9051Z" fill="#F5F5FF"/>
<path d="M18.6873 17.496C19.3674 20.175 19.5303 22.5955 18.4323 25.3176C21.4997 23.9745 22.2861 19.7441 21.4218 16.7562C20.7488 14.0772 20.5788 11.6568 21.6768 8.93469C18.6094 10.2706 17.816 14.5082 18.6873 17.496Z" fill="#F5F5FF"/>
<path d="M17.3769 21.4105C16.2647 18.753 15.7405 16.3039 16.4206 13.6823C16.5977 12.8995 16.9519 12.1525 17.3132 11.4199C18.3262 9.54531 18.8008 7.1895 18.312 5.07072C17.8657 2.95193 16.6543 1.0989 14.9896 0C15.7263 1.84586 16.1301 3.63425 16.0947 5.32928C16.0947 7.02431 15.5988 8.55415 14.8266 10.0481C12.6589 13.747 13.7215 19.1983 17.3698 21.4177L17.3769 21.4105Z" fill="#F5F5FF"/>
<path d="M190.819 36.3786H190.742L181.553 25.9067H178.72V39.5747H181.022V29.0095H181.1L190.387 39.5747H193.122V25.9067H190.819V36.3786Z" fill="#F5F5FF"/>
<path d="M198.732 25.9067H196.31V39.5747H209.21V37.4487H198.732V25.9067Z" fill="#F5F5FF"/>
<path d="M214.282 25.9067H211.866V39.5747H214.282V25.9067Z" fill="#F5F5FF"/>
<path d="M229.598 36.3786H229.52L220.325 25.9067H217.498V39.5747H219.8V29.0095H219.871L229.166 39.5747H231.9V25.9067H229.598V36.3786Z" fill="#F5F5FF"/>
<path d="M237.504 33.4482H247.421V31.4156H237.504V27.9896H247.719V25.9067H235.088V39.5747H247.988V37.4846H237.504V33.4482Z" fill="#F5F5FF"/>
<path d="M172.166 26.3735C170.94 25.8348 169.523 25.5619 167.908 25.5619H59.3436C57.7213 25.5619 56.3045 25.8348 55.0718 26.3735C53.8463 26.905 52.8828 27.7166 52.1957 28.7796C51.5014 29.8569 51.1543 31.1713 51.1543 32.737C51.1543 34.3028 51.4943 35.6315 52.1957 36.7017C52.8828 37.7718 53.8463 38.5691 55.0718 39.1077C56.2974 39.6464 57.7213 39.9122 59.3436 39.9122H167.908C169.523 39.9122 170.933 39.6464 172.166 39.1077C173.391 38.5691 174.362 37.7647 175.049 36.7017C175.736 35.6243 176.091 34.31 176.091 32.737C176.091 31.1641 175.743 29.8497 175.049 28.7796C174.362 27.7094 173.391 26.905 172.166 26.3735ZM171.939 36.5437C170.954 37.3912 169.608 37.8078 167.908 37.8078H59.3436C57.6434 37.8078 56.3116 37.3912 55.3198 36.5437C54.3351 35.689 53.8392 34.4249 53.8392 32.737C53.8392 31.0492 54.3351 29.7923 55.3198 28.9376C56.3045 28.0901 57.6434 27.6663 59.3436 27.6663H167.908C169.608 27.6663 170.947 28.0901 171.939 28.9376C172.924 29.7923 173.42 31.0564 173.42 32.737C173.42 34.4177 172.924 35.689 171.939 36.5437Z" fill="#F5F5FF"/>
</svg>
